<?xml version="1.0" standalone="no"?>
<!DOCTYPE svg PUBLIC "-//W3C//DTD SVG 20010904//EN"
 "http://www.w3.org/TR/2001/REC-SVG-20010904/DTD/svg10.dtd">
<svg version="1.0" xmlns="http://www.w3.org/2000/svg"
 width="679.000000pt" height="679.000000pt" viewBox="0 0 679.000000 679.000000"
 preserveAspectRatio="xMidYMid meet">
<metadata>
Created by potrace 1.11, written by Peter Selinger 2001-2013
</metadata>
<g transform="translate(0.000000,679.000000) scale(0.100000,-0.100000)"
fill="#000000" stroke="none">
<path d="M1483 4261 c-100 -34 -209 -119 -275 -213 l-42 -59 -21 65 c-30 94
-73 119 -128 76 -48 -38 -52 -69 -51 -410 1 -288 4 -337 33 -580 18 -146 37
-285 43 -308 29 -116 113 -136 206 -49 17 17 32 35 32 40 0 5 47 98 104 206
175 329 318 670 361 865 29 128 9 244 -53 317 -60 69 -115 83 -209 50z m141
-143 c53 -85 7 -247 -184 -643 -97 -201 -220 -438 -225 -433 -5 5 -24 267 -36
482 l-10 199 31 63 c111 218 368 419 424 332z"/>
<path d="M4150 4271 c-84 -26 -176 -96 -266 -203 l-69 -82 -8 65 c-9 73 -19
87 -70 96 -30 5 -40 1 -61 -22 -23 -25 -26 -36 -26 -104 0 -302 71 -1078 111
-1205 20 -66 38 -86 78 -86 38 0 57 33 71 120 16 105 10 200 -35 505 -19 132
-35 257 -35 277 l0 38 48 -53 c133 -147 213 -324 267 -592 48 -240 68 -294
107 -295 52 -1 69 119 39 276 -60 315 -127 460 -306 666 l-75 87 70 41 c89 52
207 146 248 198 74 93 96 209 47 257 -25 26 -80 32 -135 16z m66 -76 c11 -27
-19 -88 -63 -132 -47 -45 -168 -128 -268 -184 l-60 -34 19 30 c92 143 212 267
298 309 62 30 67 31 74 11z"/>
<path d="M4462 3916 c-19 -6 -38 -19 -42 -27 -13 -23 -30 -237 -30 -377 0
-250 32 -416 94 -487 30 -35 39 -40 77 -40 33 0 58 9 100 37 69 44 81 68 145
285 26 90 49 161 51 159 3 -2 -1 -39 -7 -83 -17 -127 -15 -457 4 -526 22 -81
42 -116 71 -123 58 -14 134 51 136 117 0 19 -3 96 -7 172 -4 87 -2 224 7 370
15 248 14 404 -3 424 -6 8 -33 13 -64 13 -53 0 -53 0 -95 -56 -43 -58 -114
-203 -142 -289 -9 -27 -32 -113 -52 -190 -37 -149 -53 -195 -65 -195 -19 0
-30 80 -40 305 -12 281 -27 439 -47 477 -11 23 -43 50 -55 47 -2 0 -18 -6 -36
-13z"/>
<path d="M2242 3909 c-152 -20 -298 -162 -371 -363 -103 -287 -73 -563 79
-715 69 -70 138 -94 260 -95 109 -1 128 6 211 82 62 57 129 174 160 280 42
144 31 369 -28 557 -32 100 -45 126 -90 176 -62 68 -124 90 -221 78z m102
-153 c55 -32 104 -101 128 -180 21 -72 48 -236 48 -296 -1 -172 -57 -322 -134
-360 -136 -65 -282 40 -316 228 -13 75 0 221 31 340 37 139 132 292 182 292
11 0 39 -11 61 -24z"/>
<path d="M5191 3884 c-30 -38 -36 -111 -36 -449 0 -241 4 -337 17 -430 28
-191 64 -275 117 -275 52 0 70 35 92 171 11 68 24 147 30 174 18 85 89 295
132 390 51 114 150 285 182 315 l25 23 0 -34 c0 -19 -11 -97 -25 -174 -59
-330 -69 -601 -29 -788 9 -44 58 -61 116 -41 87 30 86 26 67 244 -10 120 -10
185 2 375 20 323 17 412 -12 472 -24 47 -25 48 -75 51 l-51 3 -53 -61 c-104
-120 -238 -385 -296 -585 -24 -82 -33 -104 -37 -85 -3 14 -11 131 -17 260 -12
259 -30 409 -55 446 -21 33 -67 32 -94 -2z"/>
<path d="M3366 3870 c-3 -16 -8 -43 -11 -58 -5 -26 -11 -30 -71 -41 -139 -25
-246 -79 -356 -180 -193 -176 -220 -373 -65 -462 53 -30 155 -33 234 -5 70 23
163 93 210 156 33 44 38 48 41 30 8 -47 -50 -538 -73 -627 -41 -157 -97 -243
-186 -289 -99 -50 -198 -25 -243 61 -29 56 -30 211 -1 274 19 42 19 44 0 57
-10 8 -42 14 -71 14 -45 0 -56 -4 -73 -27 -57 -71 -67 -265 -21 -386 31 -81
121 -177 208 -219 60 -30 76 -33 152 -33 77 0 91 4 150 34 74 38 175 131 221
203 51 79 107 252 119 368 16 160 13 667 -5 806 -21 159 -60 335 -77 345 -7 5
-27 9 -45 9 -27 0 -32 -4 -37 -30z m-13 -216 c-1 -16 -23 -72 -49 -124 -72
-144 -191 -254 -301 -276 -47 -9 -52 21 -15 99 38 81 82 129 206 231 143 117
163 126 159 70z"/>
</g>
</svg>
