<?xml version="1.0" encoding="utf-8"?>
<!-- Generator: Adobe Illustrator 21.0.0, SVG Export Plug-In . SVG Version: 6.00 Build 0)  -->
<svg version="1.1" id="Layer_1" xmlns="http://www.w3.org/2000/svg" xmlns:xlink="http://www.w3.org/1999/xlink" x="0px" y="0px"
	 viewBox="0 0 512 512" style="enable-background:new 0 0 512 512;" xml:space="preserve">
<style type="text/css">
	.st0{fill:#E55175;}
	.st1{fill:url(#SVGID_1_);}
	.st2{fill:#FFFFFF;}
</style>
<g>
	<g id="Layer_1_1_">
		<g id="Layer_1_2_">
		</g>
	</g>
	<g id="Layer_1_5_">
		<g id="Layer_1_3_">
		</g>
		<g id="Layer_1_4_">
		</g>
	</g>
	<path class="st0" d="M2.5,256C2.5,116,116,2.5,256,2.5S509.5,116,509.5,256S396,509.5,256,509.5S2.5,396,2.5,256z"/>
	
		<linearGradient id="SVGID_1_" gradientUnits="userSpaceOnUse" x1="59.3153" y1="183.153" x2="816.7162" y2="702.7222" gradientTransform="matrix(1 0 0 1 0 1.28)">
		<stop  offset="0" style="stop-color:#000000;stop-opacity:0.7"/>
		<stop  offset="1" style="stop-color:#000000;stop-opacity:0"/>
	</linearGradient>
	<path class="st1" d="M287.3,507.6l-200.9-201l0,0l0,0c-0.9-0.4-1.6-1-2.3-1.6c-2.1-2.1-3.1-5.5-3.1-10.1v-90.2l-12.4-12.4V171
		l37.9,37.9l0,0L68.6,171h55.7c10.6,0,20.2,1.5,28.8,4.7c8.6,2.9,16.1,7.6,22.1,13.3l60.7,60.7l-0.2-25.4l-9.9-9.9v-16.9h18.7
		c1.9,0,3.4,0,4.7,0.2c1.3,0.2,2.6,0.5,3.4,1.3c0.2,0.2,0.4,0.4,0.7,0.5l0,0l30.3,30.3l1.2-1.9l0,0l21.8-0.2l0,0l0,0l0,0l45.3,45.3
		c6,0.4,13.5,1.1,13.5,1.1c1.3,0,2.3,0.2,3.1,0.8c0.2,0.1,0.3,0.2,0.5,0.4l0,0l0,0l10.3,10.3l3.2-11.5h7.2l10.5,10.5l1.9-7.5
		c0-0.5,0.2-1,0.5-1.5c0.2-0.5,0.8-0.8,1-1c0.2-0.2,0.8-0.5,1.3-0.5l6.1,6.1l0,0l-6.1-6.1c0.5-0.2,1-0.2,1.9-0.2
		c0,0,12.7-0.8,13.5-1c1,0,1.9-0.2,2.6-0.2l0,0c0.8,0,1.5,0,2.1,0l14.5,14.5l0,0L425,272.8c2.9,0,5.2,0.2,7,1c1.5,0.7,3,1.3,4,2.4
		l60.6,60.6C465.9,427.5,385.3,495.6,287.3,507.6z"/>
	<path class="st2" d="M443.5,305.3h-7.2c-0.5,0-1.3,0-1.9-0.2c-0.5-0.2-1-0.5-1.3-0.8c-0.2-0.2-0.5-0.5-0.8-1
		c-0.2-0.2-0.2-0.8-0.2-1.3c0-0.2,0-0.2,0-0.5c0-0.2,0-0.5,0-0.5c0-0.2,0-0.5,0-0.5c-0.5,1-1.3,2.1-2.1,2.9c-0.2,0.2-0.8,0.8-1.3,1
		c-0.5,0.5-1.3,0.8-1.9,1c-0.5,0.2-1.3,0.5-2.1,0.8c-0.8,0.2-1.5,0.2-2.6,0.2c-1.3,0.2-2.9,0-4.2-0.5c-1.3-0.5-2.6-1.3-3.6-2.1
		c-1-0.8-2.1-1.9-2.6-3.1c-0.8-1.3-1-2.9-1-4.4c0-1.9,0.2-3.1,1-4.4c0.8-1.3,1.9-2.3,2.9-3.1c1-1,2.3-1.5,3.8-2.1
		c1.5-0.5,2.9-0.8,4.4-1c1.5-0.2,2.9-0.5,4.2-0.5c1.3-0.2,2.6-0.2,3.4-0.2h1v-0.2c0-1.3,0-2.1-0.2-3.1c-0.2-1-0.5-1.5-1-2.1
		c-0.5-0.5-1-0.8-1.9-1c-0.8-0.2-1.9-0.2-2.9-0.2c-0.2,0-0.8,0-1.3,0c-0.5,0-1,0-1.5,0.2c-0.2,0.2-0.8,0.5-1,0.8
		c-0.2,0.2-0.5,0.2-0.5,0.8h-9.1c-0.5,0-0.8,0-1,0.2c-0.2,0.2-0.5,0.5-0.8,1l-7.8,24.9h-9.2l-5.7-18.7c0-0.5-0.2-0.8-0.2-1.3
		c0-0.2-0.2-0.8-0.2-1c-0.2-0.2-0.2-0.8-0.2-1c0,0.2-0.2,0.8-0.2,1c0,0.2-0.2,0.5-0.2,1c0,0.5-0.2,0.8-0.2,1.3l-5.5,19h-9.3l-8-24.7
		c-0.2-0.5-0.5-0.8-0.8-1c-0.2-0.2-0.5-0.2-1-0.2h-2.6c0,0.2,0.2,0.5,0.2,0.8c0.8,2.1,1,4.2,1,6.3c0,0.2,0,0.5,0,0.8
		c0,0.5,0,0.8,0,1c0,0.2,0,0.5,0,1l-22.8,0.2c0,1.5,0.5,2.9,1,3.8c0.8,1.3,1.5,2.1,2.3,2.9c1,0.5,1.9,1.3,3.1,1.5
		c1.3,0.2,2.3,0.5,3.6,0.5c1.3,0,2.6,0,3.6-0.5c1-0.5,2.1-0.8,2.9-1.3c1-0.5,1.9-1,2.6-1.9l3.4,5.7c-1,1-2.3,1.9-3.6,2.6
		c-1,0.8-2.6,1.3-4.2,1.9c-1.5,0.5-3.4,0.8-5.5,0.8c-2.6,0-4.9-0.5-7.2-1.3c-2.3-0.8-4.2-2.1-5.7-3.6c-1.5-1.5-2.9-3.4-3.6-5.5
		c-0.8-1.9-1-3.6-1.3-5.5l-20.2,0.2c0,1.5,0.5,2.9,1,3.8c0.8,1.3,1.5,2.1,2.3,2.9c1,0.5,1.9,1.3,3.1,1.5c1.3,0.2,2.3,0.5,3.6,0.5
		c1.3,0,2.6-0.2,3.6-0.5c1-0.5,2.1-0.8,2.9-1.3c1-0.5,1.9-1,2.6-1.9l3.4,5.7c-1,1-2.3,1.9-3.6,2.6c-1,0.8-2.6,1.3-4.2,1.9
		s-3.4,0.8-5.5,0.8c-2.6,0-7.2-1.3-7.2-1.3l-2.1,0.8h-14.5c-1.9,0-3.1,0-4.4-0.2c-1-0.2-2.1-0.5-3.1-1c-1-0.5-1.9-1.3-2.6-2.1
		c-0.8-1-1.5-2.1-2.3-3.6L268,274.7c-0.5-0.5-1-1-1.5-1.5c-0.5-0.2-1-0.8-1.9-0.8c-0.8,0-1.3-0.2-2.1-0.2c-0.8,0-1.5,0-2.1,0H256
		l0.2,34.5l-19.8,0.2V291l-22.8,0.2c0,1.5,0.5,2.9,1,3.8c0.8,1.3,1.5,2.1,2.3,2.9c1,0.5,2.1,1.3,3.1,1.5c1.3,0.2,2.3,0.5,3.6,0.5
		s2.6,0,3.6-0.5c1-0.5,2.1-0.8,2.9-1.3c1-0.5,1.9-1,2.6-1.9l3.4,5.7c-1,1-2.3,1.9-3.6,2.6c-1,0.8-2.6,1.3-4.2,1.9s-3.4,0.8-5.5,0.8
		c-2.6,0-5.2-0.5-7.2-1.3c-2.3-0.8-4.2-2.1-5.7-3.6c-1.5-1.5-2.9-3.4-3.6-5.5c-0.2-1-0.5-1.9-0.8-2.6c-0.2,1-0.5,1.9-0.8,2.6
		c-1,2.1-2.3,3.8-3.8,5.5c-1.5,1.6-3.6,2.9-5.7,3.6c-2.1,0.8-4.4,1.3-7,1.3c-2.3,0-4.9-0.5-7-1.3c-2.1-1-4.2-2.1-5.7-3.6
		c-1.5-1.5-2.9-3.4-3.8-5.5c-0.5-1-0.8-2.1-1-3.4c-5.2,3.8-10.9,7.2-17.7,9.5c-8.8,3.1-18.1,4.7-28.8,4.7H94.1c-4.7,0-8-1-10.1-3.1
		c-2.1-2.1-3.1-5.5-3.1-10.1V191.8H68.5v-21.3h55.7c10.6,0,20.2,1.5,28.8,4.7c8.6,2.9,16.1,7.6,22.1,13.3c5.9,5.9,10.6,12.9,14,21.5
		c3.4,8.3,4.9,17.9,4.9,28.8c0,10.9-1.5,20.5-4.9,29.1c-0.8,1.5-1.3,2.9-2.1,4.4c0.2,0,0.8,0,1,0c2.3,0,4.9,0.5,7,1.3
		c2.1,1,4.2,2.1,5.7,3.6c1.5,1.5,2.9,3.4,3.8,5.5c0.2,0.8,0.5,1.5,0.8,2.6c0.2-0.8,0.5-1.5,0.8-2.3c0.8-2.1,1.9-3.8,3.4-5.5
		c1.3-1.5,3.1-2.9,5.2-3.6c2.1-0.8,4.4-1.3,6.7-1.3s4.4,0.5,6.3,1.3c1.9,0.8,3.4,2.1,4.7,3.4s2.1,3.1,2.9,4.9
		c0.2,1.3,0.5,2.6,0.8,3.8l-0.5-68.7c0-1.3-0.5-2.1-1-2.6c-0.8-0.5-1.5-0.8-2.6-0.8h-6.3v-16.9h18.7c1.9,0,3.4,0,4.7,0.2
		c1.3,0.2,2.6,0.5,3.4,1.3c1,0.8,1.5,1.5,2.1,2.9c0.2,1,0.5,2.6,0.5,4.4l0.2,49.8c0.5,0,7,0,7.8,0c0.8-0.2,1.3-0.2,2.1-0.5
		c0.5-0.2,1.3-0.5,1.9-1c0.5-0.5,1-1,1.5-1.5l16.1-24.9l21.8-0.2l-19.8,29.8c-0.8,1.3-1.5,2.3-2.3,3.1c-0.5,0.8-1.3,1.3-1.9,1.9
		s-1,1-1.5,1.3l0,0c0.5,0.2,1.3,0.8,1.9,1.3c0.5,0.5,1.3,1,1.9,1.9c0.8,0.8,1.3,1.9,2.1,3.1l9.1,16.9c0.5,1,1.3,1.9,2.3,2.3
		c0.5,0,0.8,0.2,1.3,0.2c0-2.3,0.5-4.7,1.3-6.7c0.8-2.1,1.9-3.8,3.4-5.5c1.3-1.5,3.1-2.9,5.2-3.6c2.1-0.8,4.4-1.3,6.7-1.3
		c2.3,0,4.4,0.5,6.3,1.3c1.9,0.8,3.4,2.1,4.7,3.4c1.3,1.3,2.1,3.1,2.9,4.9c0.8-1.5,1.5-3.1,2.9-4.4c1.3-1.5,3.1-2.9,5.2-3.6
		c2.1-0.8,4.4-1.3,6.7-1.3c2.3,0,20.7,1.5,20.7,1.5c1.3,0,2.3,0.2,3.1,0.8c0.8,0.5,1.3,1.3,1.5,2.6l4.9,18.1c0,0.5,0.2,0.8,0.2,1.3
		c0.2,0.2,0.2,0.8,0.2,1c0.2,0.2,0.2,0.8,0.2,1c0-0.2,0.2-0.8,0.2-1c0-0.2,0.2-0.5,0.2-1c0-0.4,0-0.8,0.2-1.3l5.9-21.5h7.2l6.3,21.5
		c0,0.5,0.2,0.8,0.2,1.3c0,0.2,0.2,0.8,0.2,1c0.2,0.2,0.2,0.8,0.2,1c0.2-0.2,0.2-0.8,0.2-1c0-0.2,0.2-0.5,0.2-1
		c0-0.4,0.2-0.8,0.2-1.3l4.7-18.4c0-0.5,0.2-1,0.5-1.5c0.2-0.5,0.8-0.8,1-1c0.2-0.2,0.8-0.5,1.3-0.5c0.5-0.2,1-0.2,1.9-0.2
		c0,0,12.7-0.8,13.5-1c1,0,1.9-0.2,2.6-0.2c0.8,0,1.5,0,2.1,0c2.9,0,5.2,0.2,7,1c1.9,0.8,3.4,1.5,4.4,2.9c1,1.3,1.9,2.6,2.3,4.2
		c0.5,1.5,0.8,3.4,0.8,5.2v12.2c0,0.5,0,0.8,0.2,1c0.2,0.2,0.5,0.2,1,0.2h2.6L443.5,305.3z M167.8,240.1c0-7.8-1-14.5-3.1-20.2
		c-2.1-5.9-5.2-10.9-9.1-14.8c-4.2-4.2-8.8-7-14.3-9.1c-5.5-2.1-11.6-3.1-18.4-3.1h-16.6v89.8c0,1.3,0.2,2.3,1,3.1
		c0.8,0.8,1.9,1,3.1,1h12.4c6.7,0,12.9-1,18.4-3.1c5.7-2.1,10.4-5.2,14.3-9.1c3.8-3.8,7-8.8,9.1-14.8
		C166.8,253.9,167.8,247.1,167.8,240.1z M197.9,289.9c0-1.5-0.2-2.9-0.8-4.2c-0.5-1-1.3-2.3-2.1-3.1c-0.8-0.8-1.9-1.5-3.1-2.1
		c-1.3-0.5-2.6-0.8-3.8-0.8c-1.3,0-2.3,0.2-3.6,0.8s-2.3,1.3-3.1,2.1c-0.8,1-1.5,2.1-2.1,3.4c-0.5,1.3-0.8,2.6-0.8,4.2
		c0,1.5,0.2,3.1,0.8,4.2c0.5,1,1.3,2.3,2.1,3.1c0.8,0.8,1.9,1.5,3.1,2.1c1,0.5,2.3,0.8,3.6,0.8c1.5,0,2.6-0.2,3.8-0.8
		c1.3-0.5,2.3-1.3,3.1-2.1c0.8-1,1.5-2.1,2.1-3.4C197.6,292.8,197.9,291.4,197.9,289.9z M430.8,292.2v-0.8c-0.8,0-2.9,0-3.6,0
		c-0.8,0-1.5,0-2.3,0.2c-0.8,0-1.5,0.2-2.3,0.5c-0.8,0.2-1.5,0.5-2.1,1c-0.5,0.2-1,0.8-1.3,1.3c-0.2,0.5-0.5,1.3-0.5,2.1
		c0,0.5,0,1,0.2,1.5c0.2,0.5,0.5,1,1,1.3c0.5,0.5,1,0.8,1.5,1c0.5,0.2,1.3,0.2,2.1,0.2c1.3,0,2.1-0.2,3.1-0.8
		c0.8-0.5,1.5-1.3,2.3-2.1c0.8-0.8,1.3-1.9,1.5-2.9C431,294.1,431,293,430.8,292.2z M322.4,285.5c0-0.8-0.2-1.9-0.5-2.6
		c-0.2-0.8-0.8-1.5-1.3-2.1c-0.8-0.5-1.3-1-2.1-1.3c-0.8-0.2-1.5-0.5-2.3-0.5c-2.1,0-3.8,0.5-5.2,1.9c-1.5,1.3-2.3,2.9-2.9,4.9
		L322.4,285.5z M350.9,285.5c0-0.8-0.2-1.9-0.5-2.6c-0.2-0.8-0.8-1.5-1.3-2.1c-0.8-0.5-1.3-1-2.1-1.3c-0.8-0.2-1.5-0.5-2.3-0.5
		c-2.1,0-3.8,0.5-5.2,1.9c-1.5,1.3-2.3,2.9-2.9,4.9L350.9,285.5z M228,285.5c0-0.8-0.2-1.9-0.5-2.6c-0.2-0.8-0.8-1.5-1.3-2.1
		c-0.8-0.5-1.3-1-2.1-1.3c-0.8-0.2-1.5-0.5-2.3-0.5c-2.1,0-3.8,0.5-5.2,1.9c-1.5,1.3-2.3,2.9-2.9,4.9L228,285.5z"/>
</g>
</svg>
