<?xml version="1.0" encoding="utf-8"?>
<!-- Generator: Adobe Illustrator 21.0.0, SVG Export Plug-In . SVG Version: 6.00 Build 0)  -->
<svg version="1.1" id="Layer_1" xmlns="http://www.w3.org/2000/svg" xmlns:xlink="http://www.w3.org/1999/xlink" x="0px" y="0px"
	 viewBox="0 0 69 63" style="enable-background:new 0 0 69 63;" xml:space="preserve">
<style type="text/css">
	.st0{fill-opacity:0.1;}
	.st1{fill:#C41F51;}
	.st2{fill:#F2F2F2;}
</style>
<path class="st0" d="M51.1,23.2c-7.9-4.1-17.7-1.1-21.7,6.7c-1.5,3-2,6.3-1.5,9.7l0.1,0.7l2.1,19.4c0.1,0.4,0.4,0.8,0.7,1
	c0.4,0.2,0.8,0.2,1.2,0L50.3,52l0.9-0.4c3-1.5,5.4-3.9,7-6.9C62.1,36.9,59,27.2,51.1,23.2z"/>
<path class="st1" d="M31.3,1.8c-12.2,0-22.1,10-22.1,22.1c0,4.6,1.5,9.1,4.2,12.9l0.6,0.8L29.8,60c0.4,0.5,0.9,0.8,1.5,0.8
	s1.2-0.3,1.5-0.8l15.7-22.1l0.8-1.1c2.7-3.8,4.2-8.2,4.2-12.9C53.5,11.8,43.5,1.8,31.3,1.8z"/>
<g id="Layer_1_1_">
	<g id="Layer_1_2_">
	</g>
</g>
<g id="Layer_1_5_">
	<g id="Layer_1_3_">
	</g>
	<g id="Layer_1_4_">
	</g>
</g>
<path class="st2" d="M38.8,18.1c-0.4-1.1-1.1-2-1.8-2.8c-0.8-0.7-1.8-1.3-2.9-1.7C33,13.2,31.8,13,30.4,13h-7.2v2.8h1.6V29
	c0,0.6,0.1,1,0.4,1.3c0.3,0.3,0.7,0.4,1.3,0.4h3.9c1.4,0,2.6-0.2,3.7-0.6c0.9-0.3,1.6-0.7,2.3-1.2c0.3-0.2,2-2.2,2.1-2.7
	c0.1-0.2,0.2-0.4,0.3-0.6c0.4-1.1,0.6-2.4,0.6-3.8S39.2,19.2,38.8,18.1z M35.6,24.6c-0.3,0.8-0.7,1.4-1.2,1.9
	c-0.5,0.5-1.1,0.9-1.9,1.2c-0.7,0.3-1.5,0.4-2.4,0.4h-1.6c-0.2,0-0.3,0-0.4-0.1c-0.1-0.1-0.1-0.2-0.1-0.4V15.9h2.2
	c0.9,0,1.7,0.1,2.4,0.4c0.7,0.3,1.3,0.6,1.9,1.2c0.5,0.5,0.9,1.2,1.2,1.9C35.9,20.1,36,21,36,22C36,22.9,35.9,23.8,35.6,24.6z"/>
</svg>
